<svg xmlns="http://www.w3.org/2000/svg" xmlns:xlink="http://www.w3.org/1999/xlink" width="100" zoomAndPan="magnify" viewBox="0 0 75 74.999997" height="100" preserveAspectRatio="xMidYMid meet" version="1.0"><path fill="#545454" d="M 64.015625 10.984375 C 56.933594 3.902344 47.515625 0 37.5 0 C 27.484375 0 18.066406 3.902344 10.984375 10.984375 C 3.902344 18.066406 0 27.484375 0 37.5 C 0 47.515625 3.902344 56.933594 10.984375 64.015625 C 18.066406 71.097656 27.484375 75 37.5 75 C 47.515625 75 56.933594 71.097656 64.015625 64.015625 C 71.097656 56.933594 75 47.515625 75 37.5 C 75 27.484375 71.097656 18.066406 64.015625 10.984375 Z M 64.015625 10.984375 " fill-opacity="1" fill-rule="nonzero"/><path fill="#ffffff" d="M 46.457031 19.6875 C 47.042969 20.277344 47.570312 20.917969 48.03125 21.609375 C 48.492188 22.300781 48.882812 23.03125 49.203125 23.796875 C 49.519531 24.566406 49.761719 25.359375 49.921875 26.171875 C 50.085938 26.988281 50.164062 27.8125 50.164062 28.644531 C 50.164062 29.476562 50.085938 30.300781 49.921875 31.113281 C 49.761719 31.929688 49.519531 32.722656 49.203125 33.492188 C 48.882812 34.257812 48.492188 34.988281 48.03125 35.679688 C 47.570312 36.371094 47.042969 37.011719 46.457031 37.601562 C 45.867188 38.1875 45.226562 38.714844 44.535156 39.175781 C 43.84375 39.636719 43.117188 40.027344 42.347656 40.34375 C 41.578125 40.664062 40.785156 40.902344 39.972656 41.066406 C 39.15625 41.226562 38.332031 41.308594 37.5 41.308594 C 36.667969 41.308594 35.84375 41.226562 35.03125 41.066406 C 34.214844 40.902344 33.421875 40.664062 32.652344 40.34375 C 31.886719 40.027344 31.15625 39.636719 30.464844 39.175781 C 29.773438 38.714844 29.132812 38.1875 28.542969 37.601562 C 27.957031 37.011719 27.433594 36.371094 26.96875 35.679688 C 26.507812 34.988281 26.117188 34.257812 25.800781 33.492188 C 25.480469 32.722656 25.242188 31.929688 25.078125 31.113281 C 24.917969 30.300781 24.835938 29.476562 24.835938 28.644531 C 24.835938 27.8125 24.917969 26.988281 25.078125 26.171875 C 25.242188 25.359375 25.480469 24.566406 25.800781 23.796875 C 26.117188 23.03125 26.507812 22.300781 26.96875 21.609375 C 27.433594 20.917969 27.957031 20.277344 28.542969 19.6875 C 29.132812 19.101562 29.773438 18.574219 30.464844 18.113281 C 31.15625 17.652344 31.886719 17.261719 32.652344 16.945312 C 33.421875 16.625 34.214844 16.386719 35.03125 16.222656 C 35.84375 16.058594 36.667969 15.980469 37.5 15.980469 C 38.332031 15.980469 39.15625 16.058594 39.972656 16.222656 C 40.785156 16.386719 41.578125 16.625 42.347656 16.945312 C 43.117188 17.261719 43.84375 17.652344 44.535156 18.113281 C 45.226562 18.574219 45.867188 19.101562 46.457031 19.6875 Z M 46.457031 19.6875 " fill-opacity="1" fill-rule="nonzero"/><path fill="#ffffff" d="M 37.867188 46.9375 L 37.132812 46.9375 C 26.785156 46.9375 18.070312 53.921875 15.445312 63.4375 C 21.390625 68.503906 29.09375 71.5625 37.5 71.5625 C 45.90625 71.5625 53.609375 68.503906 59.554688 63.4375 C 56.929688 53.925781 48.214844 46.9375 37.867188 46.9375 Z M 37.867188 46.9375 " fill-opacity="1" fill-rule="nonzero"/></svg>