<svg xmlns="http://www.w3.org/2000/svg" xmlns:xlink="http://www.w3.org/1999/xlink" width="100" zoomAndPan="magnify" viewBox="0 0 75 74.999997" height="100" preserveAspectRatio="xMidYMid meet" version="1.0"><defs><clipPath id="453a076700"><path d="M 12.984375 64.566406 L 61.734375 64.566406 L 61.734375 64.738281 L 12.984375 64.738281 Z M 12.984375 64.566406 " clip-rule="nonzero"/></clipPath><clipPath id="24eea307c0"><path d="M 19.097656 60.3125 L 26.414062 60.3125 L 26.414062 73.101562 L 19.097656 73.101562 Z M 19.097656 60.3125 " clip-rule="nonzero"/></clipPath><clipPath id="21a3e8b20e"><path d="M 37.214844 35.136719 L 39.332031 35.136719 L 39.332031 41.230469 L 37.214844 41.230469 Z M 37.214844 35.136719 " clip-rule="nonzero"/></clipPath><clipPath id="e50f127362"><path d="M 42.65625 59.894531 C 42.527344 60.183594 42.347656 60.472656 42.128906 60.75 C 41.722656 61.265625 41.1875 61.742188 40.601562 62.140625 C 39.976562 62.566406 39.296875 62.902344 38.664062 63.085938 C 37.121094 63.527344 36.351562 62.863281 36.351562 62.640625 C 36.351562 62.417969 34.648438 48.132812 34.648438 48.132812 C 34.648438 48.132812 33.089844 44.234375 32.179688 41.417969 C 31.265625 38.597656 31.730469 34.75 31.730469 34.75 L 37.152344 33.890625 L 38.28125 33.710938 L 39.222656 33.5625 C 39.222656 33.5625 40.980469 46.753906 41.207031 48.085938 C 41.433594 49.421875 42.65625 59.894531 42.65625 59.894531 Z M 42.65625 59.894531 " clip-rule="nonzero"/></clipPath><clipPath id="02e469b18f"><path d="M 33.558594 46.75 L 37.386719 46.75 L 37.386719 51.980469 L 33.558594 51.980469 Z M 33.558594 46.75 " clip-rule="nonzero"/></clipPath><clipPath id="2741d72823"><path d="M 42.65625 59.894531 C 42.527344 60.183594 42.347656 60.472656 42.128906 60.75 C 41.722656 61.265625 41.1875 61.742188 40.601562 62.140625 C 39.976562 62.566406 39.296875 62.902344 38.664062 63.085938 C 37.121094 63.527344 36.351562 62.863281 36.351562 62.640625 C 36.351562 62.417969 34.648438 48.132812 34.648438 48.132812 C 34.648438 48.132812 33.089844 44.234375 32.179688 41.417969 C 31.265625 38.597656 31.730469 34.75 31.730469 34.75 L 37.152344 33.890625 L 38.28125 33.710938 L 39.222656 33.5625 C 39.222656 33.5625 40.980469 46.753906 41.207031 48.085938 C 41.433594 49.421875 42.65625 59.894531 42.65625 59.894531 Z M 42.65625 59.894531 " clip-rule="nonzero"/></clipPath><clipPath id="1c2e4fe3fd"><path d="M 30.1875 17.03125 L 37.160156 17.03125 L 37.160156 17.546875 L 30.1875 17.546875 Z M 30.1875 17.03125 " clip-rule="nonzero"/></clipPath><clipPath id="8d8f8915eb"><path d="M 40.003906 27.621094 C 39.976562 26.503906 39.917969 25.363281 39.835938 24.277344 C 39.582031 20.949219 39.105469 18.136719 38.699219 18.054688 C 38.382812 17.988281 37.660156 17.714844 36.574219 17.480469 C 36.464844 17.179688 36.199219 16.519531 35.976562 16.414062 C 35.6875 16.28125 32.320312 15.976562 31.875 16.179688 C 31.546875 16.328125 31.167969 16.949219 30.871094 17.292969 C 29.953125 17.457031 28.1875 17.835938 27.144531 18.1875 L 27.144531 21.328125 C 27.144531 21.328125 27.164062 22.433594 27.222656 23.761719 C 27.285156 25.167969 27.386719 26.824219 27.546875 27.65625 C 27.664062 28.261719 27.707031 28.890625 27.6875 29.566406 C 27.660156 30.464844 27.523438 31.441406 27.3125 32.53125 C 27.21875 33.023438 27.488281 33.511719 27.953125 33.683594 C 29.8125 34.382812 34.601562 35.804688 39.316406 34.121094 C 39.457031 34.074219 39.5625 33.953125 39.597656 33.808594 C 39.597656 33.808594 39.597656 33.804688 39.597656 33.804688 C 39.726562 33.289062 39.820312 32.660156 39.890625 31.957031 C 39.941406 31.414062 39.976562 30.824219 39.996094 30.207031 C 40.023438 29.386719 40.023438 28.507812 40.003906 27.621094 Z M 40.003906 27.621094 " clip-rule="nonzero"/></clipPath><clipPath id="9299b4b693"><path d="M 43.101562 26.515625 L 44.304688 26.515625 L 44.304688 29.5625 L 43.101562 29.5625 Z M 43.101562 26.515625 " clip-rule="nonzero"/></clipPath><clipPath id="a8a6c1619e"><path d="M 42.449219 26.582031 C 42.90625 26.679688 43.304688 26.96875 43.554688 27.367188 C 44.109375 28.242188 45.5625 30.304688 47.5 31.28125 C 48.050781 31.5625 47.753906 33.3125 46.433594 33.90625 C 45.109375 34.496094 41.683594 32.085938 40.972656 31.1875 C 40.339844 30.386719 40.316406 26.136719 42.449219 26.582031 Z M 42.449219 26.582031 " clip-rule="nonzero"/></clipPath><clipPath id="389be93618"><path d="M 25.328125 26.457031 L 25.84375 26.457031 L 25.84375 31.402344 L 25.328125 31.402344 Z M 25.328125 26.457031 " clip-rule="nonzero"/></clipPath><clipPath id="bfc9c8c0bb"><path d="M 22.347656 26.605469 C 22.347656 26.605469 21.839844 27.777344 21.601562 29.222656 C 21.445312 30.148438 21.613281 34.878906 21.609375 35.253906 C 21.605469 35.546875 21.707031 36.75 21.96875 36.878906 C 22.429688 37.101562 23.054688 37.300781 24.070312 36.78125 C 24.246094 36.691406 24.871094 36.230469 24.816406 36.039062 C 24.71875 35.691406 25.398438 29.683594 26.300781 27.984375 C 27.152344 26.382812 23.414062 25.128906 22.347656 26.605469 Z M 22.347656 26.605469 " clip-rule="nonzero"/></clipPath><clipPath id="b8fbb92354"><path d="M 36.472656 66.0625 L 45.617188 66.0625 L 45.617188 68.648438 L 36.472656 68.648438 Z M 36.472656 66.0625 " clip-rule="nonzero"/></clipPath><clipPath id="002d5bf015"><path d="M 45.554688 66.589844 C 45.554688 66.589844 43.019531 68.070312 41.765625 68.019531 C 40.511719 67.976562 39.121094 69.167969 36.707031 68.328125 C 36.5 68.253906 36.484375 67.738281 36.554688 67.085938 C 36.65625 66.171875 36.921875 64.996094 37.058594 64.414062 C 37.097656 64.257812 37.269531 64.179688 37.410156 64.253906 C 37.671875 64.386719 38.144531 64.492188 38.902344 64.21875 C 40.1875 63.746094 40.46875 63.410156 40.46875 63.410156 C 40.46875 63.410156 41.539062 64.59375 42.472656 64.6875 C 43.316406 64.773438 45.550781 64.722656 45.613281 66.09375 C 45.621094 66.242188 45.601562 66.40625 45.554688 66.589844 Z M 45.554688 66.589844 " clip-rule="nonzero"/></clipPath><clipPath id="d163cebffb"><path d="M 39.902344 63.417969 L 43.960938 63.417969 L 43.960938 65.371094 L 39.902344 65.371094 Z M 39.902344 63.417969 " clip-rule="nonzero"/></clipPath><clipPath id="c0566c5ce6"><path d="M 45.554688 66.589844 C 45.554688 66.589844 43.019531 68.070312 41.765625 68.019531 C 40.511719 67.976562 39.121094 69.167969 36.707031 68.328125 C 36.5 68.253906 36.484375 67.738281 36.554688 67.085938 C 36.65625 66.171875 36.921875 64.996094 37.058594 64.414062 C 37.097656 64.257812 37.269531 64.179688 37.410156 64.253906 C 37.671875 64.386719 38.144531 64.492188 38.902344 64.21875 C 40.1875 63.746094 40.46875 63.410156 40.46875 63.410156 C 40.46875 63.410156 41.539062 64.59375 42.472656 64.6875 C 43.316406 64.773438 45.550781 64.722656 45.613281 66.09375 C 45.621094 66.242188 45.601562 66.40625 45.554688 66.589844 Z M 45.554688 66.589844 " clip-rule="nonzero"/></clipPath><clipPath id="557faefcfa"><path d="M 36.472656 63.707031 L 39.273438 63.707031 L 39.273438 65.429688 L 36.472656 65.429688 Z M 36.472656 63.707031 " clip-rule="nonzero"/></clipPath><clipPath id="dee5aef278"><path d="M 45.554688 66.589844 C 45.554688 66.589844 43.019531 68.070312 41.765625 68.019531 C 40.511719 67.976562 39.121094 69.167969 36.707031 68.328125 C 36.5 68.253906 36.484375 67.738281 36.554688 67.085938 C 36.65625 66.171875 36.921875 64.996094 37.058594 64.414062 C 37.097656 64.257812 37.269531 64.179688 37.410156 64.253906 C 37.671875 64.386719 38.144531 64.492188 38.902344 64.21875 C 40.1875 63.746094 40.46875 63.410156 40.46875 63.410156 C 40.46875 63.410156 41.539062 64.59375 42.472656 64.6875 C 43.316406 64.773438 45.550781 64.722656 45.613281 66.09375 C 45.621094 66.242188 45.601562 66.40625 45.554688 66.589844 Z M 45.554688 66.589844 " clip-rule="nonzero"/></clipPath><clipPath id="c9ec219f57"><path d="M 40.300781 64.511719 L 41.21875 64.511719 L 41.21875 65.429688 L 40.300781 65.429688 Z M 40.300781 64.511719 " clip-rule="nonzero"/></clipPath><clipPath id="7de473c67b"><path d="M 45.554688 66.589844 C 45.554688 66.589844 43.019531 68.070312 41.765625 68.019531 C 40.511719 67.976562 39.121094 69.167969 36.707031 68.328125 C 36.5 68.253906 36.484375 67.738281 36.554688 67.085938 C 36.65625 66.171875 36.921875 64.996094 37.058594 64.414062 C 37.097656 64.257812 37.269531 64.179688 37.410156 64.253906 C 37.671875 64.386719 38.144531 64.492188 38.902344 64.21875 C 40.1875 63.746094 40.46875 63.410156 40.46875 63.410156 C 40.46875 63.410156 41.539062 64.59375 42.472656 64.6875 C 43.316406 64.773438 45.550781 64.722656 45.613281 66.09375 C 45.621094 66.242188 45.601562 66.40625 45.554688 66.589844 Z M 45.554688 66.589844 " clip-rule="nonzero"/></clipPath><clipPath id="b847793188"><path d="M 40.589844 64.796875 L 40.929688 64.796875 L 40.929688 65.144531 L 40.589844 65.144531 Z M 40.589844 64.796875 " clip-rule="nonzero"/></clipPath><clipPath id="3506beb4b0"><path d="M 45.554688 66.589844 C 45.554688 66.589844 43.019531 68.070312 41.765625 68.019531 C 40.511719 67.976562 39.121094 69.167969 36.707031 68.328125 C 36.5 68.253906 36.484375 67.738281 36.554688 67.085938 C 36.65625 66.171875 36.921875 64.996094 37.058594 64.414062 C 37.097656 64.257812 37.269531 64.179688 37.410156 64.253906 C 37.671875 64.386719 38.144531 64.492188 38.902344 64.21875 C 40.1875 63.746094 40.46875 63.410156 40.46875 63.410156 C 40.46875 63.410156 41.539062 64.59375 42.472656 64.6875 C 43.316406 64.773438 45.550781 64.722656 45.613281 66.09375 C 45.621094 66.242188 45.601562 66.40625 45.554688 66.589844 Z M 45.554688 66.589844 " clip-rule="nonzero"/></clipPath><clipPath id="514bef2683"><path d="M 41.445312 65.144531 L 42.1875 65.144531 L 42.1875 65.832031 L 41.445312 65.832031 Z M 41.445312 65.144531 " clip-rule="nonzero"/></clipPath><clipPath id="1a6f3f9c3e"><path d="M 45.554688 66.589844 C 45.554688 66.589844 43.019531 68.070312 41.765625 68.019531 C 40.511719 67.976562 39.121094 69.167969 36.707031 68.328125 C 36.5 68.253906 36.484375 67.738281 36.554688 67.085938 C 36.65625 66.171875 36.921875 64.996094 37.058594 64.414062 C 37.097656 64.257812 37.269531 64.179688 37.410156 64.253906 C 37.671875 64.386719 38.144531 64.492188 38.902344 64.21875 C 40.1875 63.746094 40.46875 63.410156 40.46875 63.410156 C 40.46875 63.410156 41.539062 64.59375 42.472656 64.6875 C 43.316406 64.773438 45.550781 64.722656 45.613281 66.09375 C 45.621094 66.242188 45.601562 66.40625 45.554688 66.589844 Z M 45.554688 66.589844 " clip-rule="nonzero"/></clipPath><clipPath id="14e786c59f"><path d="M 42.53125 65.316406 L 43.273438 65.316406 L 43.273438 66 L 42.53125 66 Z M 42.53125 65.316406 " clip-rule="nonzero"/></clipPath><clipPath id="f2ae0b7a39"><path d="M 45.554688 66.589844 C 45.554688 66.589844 43.019531 68.070312 41.765625 68.019531 C 40.511719 67.976562 39.121094 69.167969 36.707031 68.328125 C 36.5 68.253906 36.484375 67.738281 36.554688 67.085938 C 36.65625 66.171875 36.921875 64.996094 37.058594 64.414062 C 37.097656 64.257812 37.269531 64.179688 37.410156 64.253906 C 37.671875 64.386719 38.144531 64.492188 38.902344 64.21875 C 40.1875 63.746094 40.46875 63.410156 40.46875 63.410156 C 40.46875 63.410156 41.539062 64.59375 42.472656 64.6875 C 43.316406 64.773438 45.550781 64.722656 45.613281 66.09375 C 45.621094 66.242188 45.601562 66.40625 45.554688 66.589844 Z M 45.554688 66.589844 " clip-rule="nonzero"/></clipPath><clipPath id="ea21a7d38d"><path d="M 40.644531 63.820312 L 41.386719 63.820312 L 41.386719 65.027344 L 40.644531 65.027344 Z M 40.644531 63.820312 " clip-rule="nonzero"/></clipPath><clipPath id="ae31a20c73"><path d="M 45.554688 66.589844 C 45.554688 66.589844 43.019531 68.070312 41.765625 68.019531 C 40.511719 67.976562 39.121094 69.167969 36.707031 68.328125 C 36.5 68.253906 36.484375 67.738281 36.554688 67.085938 C 36.65625 66.171875 36.921875 64.996094 37.058594 64.414062 C 37.097656 64.257812 37.269531 64.179688 37.410156 64.253906 C 37.671875 64.386719 38.144531 64.492188 38.902344 64.21875 C 40.1875 63.746094 40.46875 63.410156 40.46875 63.410156 C 40.46875 63.410156 41.539062 64.59375 42.472656 64.6875 C 43.316406 64.773438 45.550781 64.722656 45.613281 66.09375 C 45.621094 66.242188 45.601562 66.40625 45.554688 66.589844 Z M 45.554688 66.589844 " clip-rule="nonzero"/></clipPath><clipPath id="5bc6d54b97"><path d="M 41.730469 64.28125 L 42.304688 64.28125 L 42.304688 65.546875 L 41.730469 65.546875 Z M 41.730469 64.28125 " clip-rule="nonzero"/></clipPath><clipPath id="4d16a3c307"><path d="M 45.554688 66.589844 C 45.554688 66.589844 43.019531 68.070312 41.765625 68.019531 C 40.511719 67.976562 39.121094 69.167969 36.707031 68.328125 C 36.5 68.253906 36.484375 67.738281 36.554688 67.085938 C 36.65625 66.171875 36.921875 64.996094 37.058594 64.414062 C 37.097656 64.257812 37.269531 64.179688 37.410156 64.253906 C 37.671875 64.386719 38.144531 64.492188 38.902344 64.21875 C 40.1875 63.746094 40.46875 63.410156 40.46875 63.410156 C 40.46875 63.410156 41.539062 64.59375 42.472656 64.6875 C 43.316406 64.773438 45.550781 64.722656 45.613281 66.09375 C 45.621094 66.242188 45.601562 66.40625 45.554688 66.589844 Z M 45.554688 66.589844 " clip-rule="nonzero"/></clipPath><clipPath id="d115e69d0c"><path d="M 42.816406 64.164062 L 43.273438 64.164062 L 43.273438 65.71875 L 42.816406 65.71875 Z M 42.816406 64.164062 " clip-rule="nonzero"/></clipPath><clipPath id="24b636c3c9"><path d="M 45.554688 66.589844 C 45.554688 66.589844 43.019531 68.070312 41.765625 68.019531 C 40.511719 67.976562 39.121094 69.167969 36.707031 68.328125 C 36.5 68.253906 36.484375 67.738281 36.554688 67.085938 C 36.65625 66.171875 36.921875 64.996094 37.058594 64.414062 C 37.097656 64.257812 37.269531 64.179688 37.410156 64.253906 C 37.671875 64.386719 38.144531 64.492188 38.902344 64.21875 C 40.1875 63.746094 40.46875 63.410156 40.46875 63.410156 C 40.46875 63.410156 41.539062 64.59375 42.472656 64.6875 C 43.316406 64.773438 45.550781 64.722656 45.613281 66.09375 C 45.621094 66.242188 45.601562 66.40625 45.554688 66.589844 Z M 45.554688 66.589844 " clip-rule="nonzero"/></clipPath><clipPath id="8722993751"><path d="M 36.472656 65.429688 L 45.617188 65.429688 L 45.617188 67.269531 L 36.472656 67.269531 Z M 36.472656 65.429688 " clip-rule="nonzero"/></clipPath><clipPath id="5930d3a9f9"><path d="M 45.554688 66.589844 C 45.554688 66.589844 43.019531 68.070312 41.765625 68.019531 C 40.511719 67.976562 39.121094 69.167969 36.707031 68.328125 C 36.5 68.253906 36.484375 67.738281 36.554688 67.085938 C 36.65625 66.171875 36.921875 64.996094 37.058594 64.414062 C 37.097656 64.257812 37.269531 64.179688 37.410156 64.253906 C 37.671875 64.386719 38.144531 64.492188 38.902344 64.21875 C 40.1875 63.746094 40.46875 63.410156 40.46875 63.410156 C 40.46875 63.410156 41.539062 64.59375 42.472656 64.6875 C 43.316406 64.773438 45.550781 64.722656 45.613281 66.09375 C 45.621094 66.242188 45.601562 66.40625 45.554688 66.589844 Z M 45.554688 66.589844 " clip-rule="nonzero"/></clipPath></defs><path fill="#77afae" d="M 21.15625 64.976562 L 21.15625 0.015625 L 54.84375 0.015625 L 54.84375 64.667969 L 51.882812 64.667969 L 51.882812 2.816406 L 24.425781 2.816406 L 24.425781 64.667969 L 21.15625 64.976562 " fill-opacity="1" fill-rule="nonzero"/><path fill="#77afae" d="M 49.757812 64.667969 L 49.757812 8.027344 L 24.425781 2.816406 L 24.425781 64.667969 L 49.757812 64.667969 " fill-opacity="1" fill-rule="nonzero"/><path fill="#247860" d="M 26.832031 27.851562 L 48.355469 29.890625 L 48.355469 9.992188 L 26.832031 5.875 Z M 48.492188 30.042969 L 48.417969 30.035156 L 26.695312 27.976562 L 26.695312 5.710938 L 48.492188 9.875 L 48.492188 30.042969 " fill-opacity="1" fill-rule="nonzero"/><path fill="#247860" d="M 26.832031 59.566406 L 48.355469 61.605469 L 48.355469 39.675781 L 26.832031 37.585938 Z M 48.492188 61.757812 L 48.417969 61.75 L 26.695312 59.691406 L 26.695312 37.433594 L 48.492188 39.550781 L 48.492188 61.757812 " fill-opacity="1" fill-rule="nonzero"/><g clip-path="url(#453a076700)"><path fill="#000000" d="M 61.734375 64.734375 L 12.984375 64.734375 L 12.984375 64.597656 L 61.734375 64.597656 L 61.734375 64.734375 " fill-opacity="1" fill-rule="nonzero"/></g><path fill="#000000" d="M 24.496094 64.667969 L 24.359375 64.667969 L 24.359375 2.816406 L 24.496094 2.816406 L 24.496094 64.667969 " fill-opacity="1" fill-rule="nonzero"/><path fill="#f9a041" d="M 23.886719 18.753906 C 23.625 18.753906 23.410156 18.542969 23.410156 18.277344 L 23.410156 11.34375 C 23.410156 11.078125 23.625 10.863281 23.886719 10.863281 C 24.148438 10.863281 24.359375 11.078125 24.359375 11.34375 L 24.359375 18.277344 C 24.359375 18.542969 24.148438 18.753906 23.886719 18.753906 " fill-opacity="1" fill-rule="nonzero"/><path fill="#f9a041" d="M 23.886719 54.65625 C 23.625 54.65625 23.410156 54.445312 23.410156 54.179688 L 23.410156 47.246094 C 23.410156 46.980469 23.625 46.765625 23.886719 46.765625 C 24.148438 46.765625 24.359375 46.980469 24.359375 47.246094 L 24.359375 54.179688 C 24.359375 54.445312 24.148438 54.65625 23.886719 54.65625 " fill-opacity="1" fill-rule="nonzero"/><path fill="#000000" d="M 38.6875 14.878906 C 38.347656 14.878906 38.070312 15.25 38.070312 15.703125 C 38.070312 16.160156 38.347656 16.53125 38.6875 16.53125 C 39.027344 16.53125 39.304688 16.160156 39.304688 15.703125 C 39.304688 15.25 39.027344 14.878906 38.6875 14.878906 Z M 38.6875 16.667969 C 38.269531 16.667969 37.933594 16.234375 37.933594 15.703125 C 37.933594 15.171875 38.269531 14.742188 38.6875 14.742188 C 39.101562 14.742188 39.441406 15.171875 39.441406 15.703125 C 39.441406 16.234375 39.101562 16.667969 38.6875 16.667969 " fill-opacity="1" fill-rule="nonzero"/><path fill="#000f1f" d="M 39.050781 15.703125 C 39.050781 15.964844 38.886719 16.175781 38.6875 16.175781 C 38.488281 16.175781 38.324219 15.964844 38.324219 15.703125 C 38.324219 15.445312 38.488281 15.234375 38.6875 15.234375 C 38.886719 15.234375 39.050781 15.445312 39.050781 15.703125 " fill-opacity="1" fill-rule="nonzero"/><path fill="#000000" d="M 53.746094 64.667969 L 53.609375 64.667969 L 53.609375 1.777344 L 22.648438 1.777344 L 22.648438 64.667969 L 22.511719 64.667969 L 22.511719 1.636719 L 53.746094 1.636719 L 53.746094 64.667969 " fill-opacity="1" fill-rule="nonzero"/><path fill="#ffffff" d="M 23.894531 53.894531 L 23.757812 53.894531 L 23.757812 47.414062 L 23.894531 47.414062 L 23.894531 53.894531 " fill-opacity="1" fill-rule="nonzero"/><path fill="#ffffff" d="M 23.894531 18.050781 L 23.757812 18.050781 L 23.757812 11.570312 L 23.894531 11.570312 L 23.894531 18.050781 " fill-opacity="1" fill-rule="nonzero"/><path fill="#aa3f24" d="M 39.867188 62.613281 C 39.867188 62.613281 40.304688 62.472656 40.46875 62.628906 C 40.628906 62.785156 40.675781 63.789062 40.972656 64.195312 C 41.265625 64.601562 39.867188 64.351562 39.867188 64.351562 C 39.867188 64.351562 39.589844 62.816406 39.867188 62.613281 " fill-opacity="1" fill-rule="nonzero"/><path fill="#f4937f" d="M 37.289062 64.429688 C 37.289062 64.429688 37.21875 61.753906 37.152344 61.304688 C 37.082031 60.859375 40.070312 60.578125 40.070312 60.578125 C 40.070312 60.578125 40.09375 63.347656 40.441406 64.429688 C 40.792969 65.507812 37.328125 65.628906 37.289062 64.429688 " fill-opacity="1" fill-rule="nonzero"/><path fill="#aa3f24" d="M 45.554688 66.589844 C 45.554688 66.589844 43.019531 68.070312 41.765625 68.019531 C 40.511719 67.976562 39.121094 69.167969 36.707031 68.328125 C 36.5 68.253906 36.484375 67.738281 36.554688 67.085938 C 36.65625 66.171875 36.921875 64.996094 37.058594 64.414062 C 37.097656 64.257812 37.269531 64.179688 37.410156 64.253906 C 37.671875 64.386719 38.144531 64.492188 38.902344 64.21875 C 40.1875 63.746094 40.46875 63.410156 40.46875 63.410156 C 40.46875 63.410156 41.539062 64.59375 42.472656 64.6875 C 43.316406 64.773438 45.550781 64.722656 45.613281 66.09375 C 45.621094 66.242188 45.601562 66.40625 45.554688 66.589844 " fill-opacity="1" fill-rule="nonzero"/><path fill="#aa3f24" d="M 39.867188 62.613281 C 39.867188 62.613281 40.304688 62.472656 40.46875 62.628906 C 40.628906 62.785156 40.675781 63.789062 40.972656 64.195312 C 41.265625 64.601562 39.867188 64.351562 39.867188 64.351562 C 39.867188 64.351562 39.589844 62.816406 39.867188 62.613281 " fill-opacity="1" fill-rule="nonzero"/><path fill="#f4937f" d="M 37.289062 64.429688 C 37.289062 64.429688 37.21875 61.753906 37.152344 61.304688 C 37.082031 60.859375 40.070312 60.578125 40.070312 60.578125 C 40.070312 60.578125 40.09375 63.347656 40.441406 64.429688 C 40.792969 65.507812 37.328125 65.628906 37.289062 64.429688 " fill-opacity="1" fill-rule="nonzero"/><path fill="#aa3f24" d="M 45.554688 66.589844 C 45.554688 66.589844 43.019531 68.070312 41.765625 68.019531 C 40.511719 67.976562 39.121094 69.167969 36.707031 68.328125 C 36.5 68.253906 36.484375 67.738281 36.554688 67.085938 C 36.65625 66.171875 36.921875 64.996094 37.058594 64.414062 C 37.097656 64.257812 37.269531 64.179688 37.410156 64.253906 C 37.671875 64.386719 38.144531 64.492188 38.902344 64.21875 C 40.1875 63.746094 40.46875 63.410156 40.46875 63.410156 C 40.46875 63.410156 41.539062 64.59375 42.472656 64.6875 C 43.316406 64.773438 45.550781 64.722656 45.613281 66.09375 C 45.621094 66.242188 45.601562 66.40625 45.554688 66.589844 " fill-opacity="1" fill-rule="nonzero"/><path fill="#247860" d="M 34.648438 34.285156 L 33.230469 40.652344 L 31.957031 46.363281 L 31.730469 47.378906 L 27.386719 61.859375 L 20.9375 57.980469 C 21.285156 56.941406 24.9375 46.320312 24.9375 46.320312 C 24.9375 46.320312 26.023438 41.421875 26.054688 41.054688 C 26.195312 39.570312 26.6875 37.863281 26.757812 37.269531 C 26.828125 36.675781 27.597656 32.894531 27.597656 32.894531 L 34.648438 34.285156 " fill-opacity="1" fill-rule="nonzero"/><path fill="#000f1f" d="M 33.230469 40.652344 L 31.957031 46.363281 C 31.523438 43.183594 31.648438 38.304688 31.648438 38.304688 L 33.230469 40.652344 " fill-opacity="1" fill-rule="nonzero"/><path fill="#000f1f" d="M 27.222656 62.300781 C 26.511719 62.71875 25.628906 62.515625 24.632812 62.011719 C 24.203125 61.792969 23.753906 61.519531 23.289062 61.21875 C 23.082031 61.085938 22.871094 60.945312 22.660156 60.800781 C 21.917969 60.300781 21.363281 59.726562 21.058594 59.210938 C 20.890625 58.921875 20.796875 58.65625 20.789062 58.429688 C 20.78125 58.25 20.832031 58.097656 20.9375 57.980469 C 20.953125 57.960938 20.972656 57.945312 20.992188 57.925781 C 21.113281 57.832031 21.300781 57.757812 21.542969 57.722656 C 21.75 57.691406 22.003906 57.691406 22.28125 57.726562 C 22.847656 57.804688 23.535156 58.042969 24.261719 58.539062 C 24.597656 58.765625 24.941406 59.046875 25.285156 59.394531 C 25.359375 59.46875 25.433594 59.542969 25.503906 59.613281 C 26.691406 60.804688 27.816406 61.953125 27.222656 62.300781 " fill-opacity="1" fill-rule="nonzero"/><path fill="#f4937f" d="M 25.503906 59.613281 L 24.632812 62.011719 L 24.539062 62.273438 L 24.421875 62.589844 L 20.75 59.960938 L 21.058594 59.210938 L 21.289062 58.648438 L 21.542969 57.722656 C 21.75 57.691406 22.003906 57.691406 22.28125 57.726562 C 22.847656 57.804688 23.535156 58.042969 24.261719 58.539062 C 24.597656 58.765625 24.941406 59.046875 25.285156 59.394531 C 25.359375 59.46875 25.433594 59.542969 25.503906 59.613281 " fill-opacity="1" fill-rule="nonzero"/><path fill="#aa3f24" d="M 19.394531 61.691406 C 19.460938 61.542969 19.859375 60.542969 20.609375 59.769531 C 21.359375 58.996094 22.976562 58.875 23.804688 59.890625 C 24.636719 60.910156 24.796875 63.796875 25.101562 64.695312 C 25.40625 65.589844 27.851562 70.203125 25.273438 72.476562 C 22.429688 74.984375 19.394531 61.691406 19.394531 61.691406 " fill-opacity="1" fill-rule="nonzero"/><g clip-path="url(#24eea307c0)"><path fill="#000f1f" d="M 20.683594 60.382812 C 20.429688 60.402344 20.195312 60.523438 20.027344 60.714844 C 19.5625 61.246094 18.765625 62.476562 19.34375 64.234375 C 20.128906 66.628906 20.226562 68.664062 20.488281 69.671875 C 20.75 70.675781 22.277344 73.355469 24.265625 73.082031 C 26.253906 72.804688 26.75 69.714844 26.09375 68.289062 C 25.441406 66.867188 24.261719 65.296875 24.117188 64.269531 C 23.980469 63.277344 23.699219 60.125 20.683594 60.382812 " fill-opacity="1" fill-rule="nonzero"/></g><path fill="#f4937f" d="M 37.65625 11.4375 C 37.65625 11.4375 37.65625 14.980469 37.09375 15.65625 C 36.445312 16.4375 33.113281 15.898438 32.875 14.761719 C 32.632812 13.625 31.457031 11.382812 32.875 10.03125 C 34.289062 8.675781 37.363281 8.757812 37.65625 11.4375 " fill-opacity="1" fill-rule="nonzero"/><path fill="#f4937f" d="M 36.480469 15.628906 C 36.480469 15.628906 35.945312 17.035156 36.078125 17.871094 C 36.210938 18.710938 32.445312 17.0625 32.445312 17.0625 C 32.445312 17.0625 33.167969 15.542969 32.484375 13.449219 C 31.804688 11.355469 36.347656 12.761719 36.480469 15.628906 " fill-opacity="1" fill-rule="nonzero"/><path fill="#010101" d="M 36.160156 15.628906 C 36.160156 15.628906 33.789062 16.332031 32.652344 14.851562 C 32.652344 14.851562 31.6875 11.75 31.742188 10.976562 C 31.796875 10.199219 32.277344 10.273438 32.277344 10.273438 C 32.277344 10.273438 32.128906 9.769531 32.417969 9.351562 C 32.703125 8.9375 34.539062 7.910156 36.160156 8.632812 C 37.78125 9.351562 38.261719 10.488281 38.242188 10.957031 C 38.226562 11.425781 38 12.425781 37.621094 12.671875 C 37.246094 12.921875 36.835938 14.527344 36.605469 14.996094 C 36.375 15.464844 36.160156 15.628906 36.160156 15.628906 " fill-opacity="1" fill-rule="nonzero"/><path fill="#f4937f" d="M 36.996094 14.257812 C 36.996094 14.257812 36.570312 13.007812 36.90625 12.597656 C 37.246094 12.183594 37.714844 12.796875 37.5 13.535156 C 37.289062 14.277344 37.300781 14.3125 36.996094 14.257812 " fill-opacity="1" fill-rule="nonzero"/><path fill="#f27864" d="M 24.949219 37.273438 C 24.949219 37.273438 24.960938 37.296875 24.976562 37.335938 C 25.070312 37.558594 25.386719 38.300781 25.398438 38.410156 C 25.410156 38.539062 24.957031 39.386719 24.949219 39.609375 C 24.941406 39.828125 24.601562 40.042969 24.402344 39.742188 C 24.203125 39.441406 24.398438 38.386719 24.398438 38.386719 L 24.234375 37.558594 L 24.949219 37.273438 " fill-opacity="1" fill-rule="nonzero"/><path fill="#f4937f" d="M 22.304688 35.664062 L 22.390625 36.800781 C 22.390625 36.800781 22.207031 37.207031 22.046875 38.003906 C 21.90625 38.699219 21.949219 39.492188 22.226562 39.859375 C 22.503906 40.222656 24.414062 39.417969 24.457031 39.011719 C 24.5 38.605469 24.265625 38.160156 24.457031 37.953125 C 24.652344 37.746094 24.949219 37.273438 24.949219 37.273438 C 24.949219 37.273438 24.457031 36.15625 24.351562 35.558594 C 24.246094 34.957031 22.496094 35.085938 22.304688 35.664062 " fill-opacity="1" fill-rule="nonzero"/><path fill="#f27864" d="M 23.246094 39.871094 C 23.25 39.824219 23.554688 38.914062 23.816406 38.714844 C 24.011719 38.566406 24.320312 38.660156 24.183594 39.125 C 24.027344 39.660156 23.957031 40.191406 23.851562 40.359375 C 23.757812 40.511719 23.191406 40.507812 23.246094 39.871094 " fill-opacity="1" fill-rule="nonzero"/><path fill="#f4937f" d="M 24.074219 39.527344 C 24.078125 39.480469 24.382812 38.570312 24.644531 38.371094 C 24.839844 38.222656 25.148438 38.316406 25.011719 38.78125 C 24.855469 39.316406 24.785156 39.847656 24.679688 40.019531 C 24.585938 40.167969 24.019531 40.164062 24.074219 39.527344 " fill-opacity="1" fill-rule="nonzero"/><path fill="#f27864" d="M 23.0625 39.5 C 23.0625 39.5 23.679688 39.453125 24.019531 39.503906 C 24.019531 39.503906 24.382812 40.039062 24.167969 40.296875 C 23.957031 40.554688 23.105469 39.980469 23.0625 39.5 " fill-opacity="1" fill-rule="nonzero"/><path fill="#f27864" d="M 23.746094 39.871094 C 23.75 39.824219 24.054688 38.914062 24.316406 38.714844 C 24.515625 38.566406 24.820312 38.660156 24.683594 39.125 C 24.527344 39.660156 24.457031 40.191406 24.351562 40.359375 C 24.257812 40.511719 23.691406 40.507812 23.746094 39.871094 " fill-opacity="1" fill-rule="nonzero"/><path fill="#f4937f" d="M 22.078125 39.5625 C 22.078125 39.5625 22.660156 39.519531 22.980469 39.570312 C 22.980469 39.570312 23.320312 40.070312 23.121094 40.3125 C 22.921875 40.558594 22.121094 40.015625 22.078125 39.5625 " fill-opacity="1" fill-rule="nonzero"/><path fill="#f4937f" d="M 22.722656 39.914062 C 22.726562 39.871094 23.011719 39.011719 23.261719 38.824219 C 23.445312 38.6875 23.734375 38.773438 23.605469 39.210938 C 23.460938 39.714844 23.390625 40.214844 23.292969 40.375 C 23.203125 40.515625 22.675781 40.511719 22.722656 39.914062 " fill-opacity="1" fill-rule="nonzero"/><path fill="#fae6c9" d="M 28.554688 23.480469 C 28.53125 23.609375 28.507812 23.734375 28.484375 23.859375 C 28.148438 25.457031 27.328125 27.402344 26.332031 28.820312 C 25.863281 29.488281 25.355469 30.039062 24.84375 30.382812 C 23.234375 31.460938 22.238281 28.867188 22.191406 27.730469 C 22.175781 27.328125 22.386719 26.691406 22.714844 25.9375 C 23.253906 24.710938 24.109375 23.160156 24.835938 21.773438 C 24.925781 21.605469 25.011719 21.445312 25.09375 21.285156 C 26.296875 18.949219 27.144531 18.1875 27.144531 18.1875 C 28.625 18.058594 28.941406 21.152344 28.554688 23.480469 " fill-opacity="1" fill-rule="nonzero"/><path fill="#fae6c9" d="M 22.347656 26.605469 C 22.347656 26.605469 21.839844 27.777344 21.601562 29.222656 C 21.445312 30.148438 21.613281 34.878906 21.609375 35.253906 C 21.605469 35.546875 21.707031 36.75 21.96875 36.878906 C 22.429688 37.101562 23.054688 37.300781 24.070312 36.78125 C 24.246094 36.691406 24.871094 36.230469 24.816406 36.039062 C 24.71875 35.691406 25.398438 29.683594 26.300781 27.984375 C 27.152344 26.382812 23.414062 25.128906 22.347656 26.605469 " fill-opacity="1" fill-rule="nonzero"/><path fill="#f9a041" d="M 28.554688 23.480469 C 28.53125 23.609375 28.507812 23.734375 28.484375 23.859375 C 28.148438 25.457031 27.328125 27.402344 26.332031 28.820312 C 25.835938 27.949219 24.511719 25.957031 22.714844 25.9375 C 23.253906 24.710938 24.109375 23.160156 24.835938 21.773438 C 25.90625 21.765625 27.511719 22.03125 28.554688 23.480469 " fill-opacity="1" fill-rule="nonzero"/><path fill="#247860" d="M 42.65625 59.894531 C 42.527344 60.183594 42.347656 60.472656 42.128906 60.75 C 41.722656 61.265625 41.1875 61.742188 40.601562 62.140625 C 39.976562 62.566406 39.296875 62.902344 38.664062 63.085938 C 37.121094 63.527344 36.351562 62.863281 36.351562 62.640625 C 36.351562 62.417969 34.648438 48.132812 34.648438 48.132812 C 34.648438 48.132812 33.089844 44.234375 32.179688 41.417969 C 31.265625 38.597656 31.730469 34.75 31.730469 34.75 L 37.152344 33.890625 L 38.28125 33.710938 L 39.222656 33.5625 C 39.222656 33.5625 40.980469 46.753906 41.207031 48.085938 C 41.433594 49.421875 42.65625 59.894531 42.65625 59.894531 " fill-opacity="1" fill-rule="nonzero"/><g clip-path="url(#21a3e8b20e)"><g clip-path="url(#e50f127362)"><path fill="#000000" d="M 37.335938 41.210938 L 37.238281 41.113281 C 39.699219 38.613281 39.121094 35.210938 39.113281 35.175781 L 39.25 35.152344 C 39.25 35.160156 39.40625 36.035156 39.246094 37.214844 C 39.097656 38.300781 38.648438 39.878906 37.335938 41.210938 " fill-opacity="1" fill-rule="nonzero"/></g></g><g clip-path="url(#02e469b18f)"><g clip-path="url(#2741d72823)"><path fill="#000000" d="M 37.234375 51.9375 C 36.175781 50.796875 35.324219 49.371094 34.703125 48.332031 C 34.257812 47.582031 33.871094 46.9375 33.699219 46.921875 C 33.691406 46.921875 33.683594 46.921875 33.671875 46.933594 L 33.570312 46.839844 C 33.609375 46.796875 33.660156 46.777344 33.714844 46.785156 C 33.941406 46.804688 34.234375 47.277344 34.820312 48.261719 C 35.4375 49.296875 36.285156 50.714844 37.335938 51.84375 L 37.234375 51.9375 " fill-opacity="1" fill-rule="nonzero"/></g></g><path fill="#000f1f" d="M 27.449219 33.621094 C 27.449219 33.621094 27.660156 35.054688 31.058594 35.6875 C 34.453125 36.320312 39.351562 34.515625 39.351562 34.515625 L 39.316406 34.121094 L 27.792969 32.640625 L 27.449219 33.621094 " fill-opacity="1" fill-rule="nonzero"/><path fill="#fae6c9" d="M 40.003906 27.621094 C 39.976562 26.503906 39.917969 25.363281 39.835938 24.277344 C 39.582031 20.949219 39.105469 18.136719 38.699219 18.054688 C 38.382812 17.988281 37.660156 17.714844 36.574219 17.480469 C 36.464844 17.179688 36.199219 16.519531 35.976562 16.414062 C 35.6875 16.28125 32.320312 15.976562 31.875 16.179688 C 31.546875 16.328125 31.167969 16.949219 30.871094 17.292969 C 29.953125 17.457031 28.1875 17.835938 27.144531 18.1875 L 27.144531 21.328125 C 27.144531 21.328125 27.164062 22.433594 27.222656 23.761719 C 27.285156 25.167969 27.386719 26.824219 27.546875 27.65625 C 27.664062 28.261719 27.707031 28.890625 27.6875 29.566406 C 27.660156 30.464844 27.523438 31.441406 27.3125 32.53125 C 27.21875 33.023438 26.984375 33.445312 27.449219 33.621094 C 29.308594 34.316406 34.601562 35.804688 39.316406 34.121094 C 39.457031 34.074219 39.5625 33.953125 39.597656 33.808594 C 39.597656 33.808594 39.597656 33.804688 39.597656 33.804688 C 39.726562 33.289062 39.820312 32.660156 39.890625 31.957031 C 39.941406 31.414062 39.976562 30.824219 39.996094 30.207031 C 40.023438 29.386719 40.023438 28.507812 40.003906 27.621094 " fill-opacity="1" fill-rule="nonzero"/><path fill="#f9a041" d="M 39.996094 30.207031 C 38.480469 30.121094 35.109375 30.777344 32.519531 30.640625 C 30.21875 30.515625 28.65625 29.597656 27.6875 29.566406 C 27.707031 28.890625 27.664062 28.261719 27.546875 27.65625 C 27.386719 26.824219 27.285156 25.167969 27.222656 23.761719 C 27.703125 23.753906 29.597656 24.328125 32.519531 24.410156 C 34.84375 24.476562 38.09375 24.015625 39.835938 24.277344 C 39.917969 25.363281 39.976562 26.503906 40.003906 27.621094 C 40.023438 28.507812 40.023438 29.386719 39.996094 30.207031 " fill-opacity="1" fill-rule="nonzero"/><path fill="#000f1f" d="M 39.890625 31.957031 C 37.730469 28.253906 37.808594 24.820312 37.730469 24.550781 L 40.003906 27.621094 C 40.039062 29.175781 40.007812 30.691406 39.890625 31.957031 " fill-opacity="1" fill-rule="nonzero"/><path fill="#000f1f" d="M 49.3125 33.621094 C 49.3125 34.386719 48.695312 35.003906 47.9375 35.003906 C 47.175781 35.003906 46.558594 34.386719 46.558594 33.621094 C 46.558594 32.855469 47.175781 32.238281 47.9375 32.238281 C 48.695312 32.238281 49.3125 32.855469 49.3125 33.621094 " fill-opacity="1" fill-rule="nonzero"/><path fill="#f4937f" d="M 46.144531 30.863281 L 47.378906 31.410156 L 48.566406 30.964844 C 48.566406 30.964844 50.003906 31.671875 50.148438 31.972656 C 50.289062 32.277344 50.183594 34.0625 49.957031 34.324219 C 49.8125 34.492188 49.265625 34.464844 49.078125 34.046875 C 48.882812 33.621094 48.5 33.65625 48.5 33.65625 C 48.5 33.65625 48.035156 34.390625 47.421875 34.324219 C 46.808594 34.257812 46.273438 33.4375 46.164062 33.308594 C 46.058594 33.175781 45.296875 32.867188 45.296875 32.867188 C 45.296875 32.867188 45.101562 30.988281 46.144531 30.863281 " fill-opacity="1" fill-rule="nonzero"/><path fill="#f4937f" d="M 49.023438 33.890625 C 49.023438 33.890625 49.074219 34.007812 49.09375 34.117188 C 49.105469 34.191406 49.105469 34.261719 49.070312 34.289062 C 48.578125 34.691406 48.5 34.871094 48.5 34.945312 C 48.507812 35.113281 48.6875 35.269531 49.058594 35.050781 L 49.675781 34.792969 C 49.804688 34.71875 49.890625 34.585938 49.898438 34.433594 C 49.917969 34.160156 49.859375 33.667969 49.699219 33.511719 C 49.523438 33.34375 49.023438 33.890625 49.023438 33.890625 " fill-opacity="1" fill-rule="nonzero"/><path fill="#f4937f" d="M 49.960938 32.726562 C 49.960938 32.726562 50.136719 33.78125 50.148438 33.972656 C 50.160156 34.167969 50.027344 34.550781 49.816406 34.511719 C 49.605469 34.472656 49.359375 32.953125 49.359375 32.953125 L 49.960938 32.726562 " fill-opacity="1" fill-rule="nonzero"/><path fill="#f4937f" d="M 50.148438 31.972656 C 50.148438 31.972656 50.589844 33.230469 50.554688 33.65625 C 50.515625 34.085938 50.003906 34.242188 50.003906 34.242188 C 50.003906 34.242188 49.847656 32.28125 50.148438 31.972656 " fill-opacity="1" fill-rule="nonzero"/><path fill="#fae6c9" d="M 41.347656 31.363281 C 41.027344 31.382812 40.492188 30.75 39.898438 29.800781 C 38.9375 28.269531 37.835938 25.925781 37.285156 24.226562 C 37.128906 23.742188 37.015625 23.308594 36.964844 22.960938 C 36.621094 20.644531 37.667969 17.734375 37.667969 17.734375 C 40 18.085938 38.773438 18.671875 39.230469 19.609375 C 39.421875 20.003906 41.566406 21.519531 41.988281 22.652344 C 42.566406 24.207031 43.234375 26.066406 43.625 27.136719 C 43.710938 27.367188 43.78125 27.589844 43.835938 27.796875 C 44.664062 30.917969 42.265625 31.304688 41.347656 31.363281 " fill-opacity="1" fill-rule="nonzero"/><path fill="#fae6c9" d="M 42.449219 26.582031 C 42.90625 26.679688 43.304688 26.96875 43.554688 27.367188 C 44.109375 28.242188 45.5625 30.304688 47.5 31.28125 C 48.050781 31.5625 47.753906 33.3125 46.433594 33.90625 C 45.109375 34.496094 41.683594 32.085938 40.972656 31.1875 C 40.339844 30.386719 40.316406 26.136719 42.449219 26.582031 " fill-opacity="1" fill-rule="nonzero"/><path fill="#f9a041" d="M 43.835938 27.796875 C 43.382812 28.585938 42.328125 29.582031 39.898438 29.800781 C 38.9375 28.269531 37.835938 25.925781 37.285156 24.226562 C 37.285156 24.226562 40.070312 24.566406 41.988281 22.652344 C 42.566406 24.207031 43.234375 26.066406 43.625 27.136719 C 43.710938 27.367188 43.78125 27.589844 43.835938 27.796875 " fill-opacity="1" fill-rule="nonzero"/><path fill="#000000" d="M 27.367188 26.90625 C 27.015625 25.042969 27.058594 23.128906 27.074219 22.5 C 27.078125 22.394531 27.082031 22.304688 27.078125 22.285156 C 27.078125 22.296875 27.089844 22.320312 27.113281 22.332031 L 27.175781 22.210938 C 27.21875 22.234375 27.21875 22.234375 27.210938 22.503906 C 27.199219 23.128906 27.152344 25.03125 27.503906 26.878906 L 27.367188 26.90625 " fill-opacity="1" fill-rule="nonzero"/><g clip-path="url(#1c2e4fe3fd)"><g clip-path="url(#8d8f8915eb)"><path fill="#000000" d="M 37.132812 17.535156 C 34.164062 16.910156 30.246094 17.355469 30.207031 17.359375 L 30.191406 17.222656 C 30.230469 17.21875 34.171875 16.769531 37.160156 17.398438 L 37.132812 17.535156 " fill-opacity="1" fill-rule="nonzero"/></g></g><path fill="#000000" d="M 41.773438 30.824219 C 41.675781 30.824219 41.585938 30.816406 41.507812 30.804688 C 41.042969 30.730469 40.628906 30.460938 40.597656 30.285156 L 40.730469 30.261719 C 40.746094 30.328125 41.058594 30.59375 41.53125 30.667969 C 41.996094 30.742188 42.652344 30.648438 43.136719 29.765625 L 43.257812 29.832031 C 42.808594 30.652344 42.203125 30.824219 41.773438 30.824219 " fill-opacity="1" fill-rule="nonzero"/><path fill="#000000" d="M 25.003906 27.148438 C 23.792969 26.289062 22.746094 26.613281 22.738281 26.613281 L 22.695312 26.484375 C 22.742188 26.46875 23.8125 26.136719 25.085938 27.039062 L 25.003906 27.148438 " fill-opacity="1" fill-rule="nonzero"/><path fill="#000000" d="M 29.476562 48.777344 C 27.351562 47.261719 25.074219 47.445312 25.050781 47.445312 L 25.039062 47.308594 C 25.0625 47.308594 27.390625 47.117188 29.554688 48.664062 L 29.476562 48.777344 " fill-opacity="1" fill-rule="nonzero"/><g clip-path="url(#9299b4b693)"><g clip-path="url(#a8a6c1619e)"><path fill="#000000" d="M 44.25 29.535156 L 44.113281 29.535156 C 44.113281 28.226562 43.660156 26.996094 43.363281 26.179688 C 43.160156 25.632812 43.074219 25.386719 43.136719 25.265625 L 43.257812 25.328125 C 43.222656 25.402344 43.359375 25.773438 43.492188 26.132812 C 43.792969 26.957031 44.25 28.199219 44.25 29.535156 " fill-opacity="1" fill-rule="nonzero"/></g></g><g clip-path="url(#389be93618)"><g clip-path="url(#bfc9c8c0bb)"><path fill="#000000" d="M 25.703125 31.371094 L 25.566406 31.359375 C 25.925781 27.679688 25.34375 26.59375 25.339844 26.582031 L 25.457031 26.515625 C 25.480469 26.558594 26.070312 27.632812 25.703125 31.371094 " fill-opacity="1" fill-rule="nonzero"/></g></g><g clip-path="url(#b8fbb92354)"><g clip-path="url(#002d5bf015)"><path fill="#000f1f" d="M 45.554688 66.589844 C 45.554688 66.589844 43.019531 68.070312 41.765625 68.019531 C 40.511719 67.976562 39.121094 69.167969 36.707031 68.328125 C 36.5 68.253906 36.484375 67.738281 36.554688 67.085938 C 36.796875 67.175781 38.121094 67.640625 39.355469 67.386719 C 40.722656 67.105469 41.914062 67.566406 43 67.265625 C 43.765625 67.054688 44.917969 66.515625 45.613281 66.09375 C 45.621094 66.242188 45.601562 66.40625 45.554688 66.589844 " fill-opacity="1" fill-rule="nonzero"/></g></g><g clip-path="url(#d163cebffb)"><g clip-path="url(#c0566c5ce6)"><path fill="#000000" d="M 43.472656 65.347656 C 43.464844 65.347656 43.457031 65.347656 43.449219 65.347656 C 43.210938 65.335938 42.78125 65.300781 42.078125 65.203125 C 40.75 65.015625 40.007812 63.675781 39.925781 63.523438 L 40.046875 63.457031 C 40.078125 63.515625 40.816406 64.886719 42.097656 65.066406 C 42.796875 65.164062 43.222656 65.199219 43.457031 65.210938 C 43.601562 65.21875 43.734375 65.117188 43.761719 64.976562 C 43.800781 64.78125 43.816406 64.488281 43.671875 64.175781 L 43.796875 64.117188 C 43.957031 64.464844 43.941406 64.789062 43.898438 65.003906 C 43.855469 65.203125 43.675781 65.347656 43.472656 65.347656 " fill-opacity="1" fill-rule="nonzero"/></g></g><g clip-path="url(#557faefcfa)"><g clip-path="url(#dee5aef278)"><path fill="#000000" d="M 37.769531 65.394531 C 37.203125 65.394531 36.644531 65.316406 36.460938 65.03125 C 36.054688 64.398438 36.566406 63.722656 36.570312 63.71875 L 36.679688 63.800781 C 36.660156 63.828125 36.222656 64.40625 36.574219 64.957031 C 36.859375 65.398438 38.425781 65.253906 39.097656 65.148438 L 38.742188 63.777344 L 38.875 63.742188 L 39.265625 65.257812 L 39.191406 65.273438 C 39.140625 65.28125 38.453125 65.394531 37.769531 65.394531 " fill-opacity="1" fill-rule="nonzero"/></g></g><g clip-path="url(#c9ec219f57)"><g clip-path="url(#7de473c67b)"><path fill="#000000" d="M 40.746094 64.65625 C 40.582031 64.65625 40.445312 64.789062 40.445312 64.957031 C 40.445312 65.125 40.582031 65.257812 40.746094 65.257812 C 40.910156 65.257812 41.046875 65.125 41.046875 64.957031 C 41.046875 64.789062 40.910156 64.65625 40.746094 64.65625 Z M 40.746094 65.394531 C 40.503906 65.394531 40.308594 65.199219 40.308594 64.957031 C 40.308594 64.714844 40.503906 64.519531 40.746094 64.519531 C 40.988281 64.519531 41.183594 64.714844 41.183594 64.957031 C 41.183594 65.199219 40.988281 65.394531 40.746094 65.394531 " fill-opacity="1" fill-rule="nonzero"/></g></g><g clip-path="url(#b847793188)"><g clip-path="url(#3506beb4b0)"><path fill="#000f1f" d="M 40.890625 64.957031 C 40.890625 65.039062 40.828125 65.101562 40.746094 65.101562 C 40.664062 65.101562 40.601562 65.039062 40.601562 64.957031 C 40.601562 64.875 40.664062 64.808594 40.746094 64.808594 C 40.828125 64.808594 40.890625 64.875 40.890625 64.957031 " fill-opacity="1" fill-rule="nonzero"/></g></g><g clip-path="url(#514bef2683)"><g clip-path="url(#1a6f3f9c3e)"><path fill="#000000" d="M 41.8125 65.304688 C 41.707031 65.304688 41.625 65.390625 41.625 65.492188 C 41.625 65.597656 41.707031 65.683594 41.8125 65.683594 C 41.914062 65.683594 42 65.597656 42 65.492188 C 42 65.390625 41.914062 65.304688 41.8125 65.304688 Z M 41.8125 65.820312 C 41.632812 65.820312 41.484375 65.675781 41.484375 65.492188 C 41.484375 65.3125 41.632812 65.167969 41.8125 65.167969 C 41.992188 65.167969 42.136719 65.3125 42.136719 65.492188 C 42.136719 65.675781 41.992188 65.820312 41.8125 65.820312 " fill-opacity="1" fill-rule="nonzero"/></g></g><g clip-path="url(#14e786c59f)"><g clip-path="url(#f2ae0b7a39)"><path fill="#000000" d="M 42.914062 65.472656 C 42.808594 65.472656 42.726562 65.558594 42.726562 65.660156 C 42.726562 65.765625 42.808594 65.851562 42.914062 65.851562 C 43.015625 65.851562 43.101562 65.765625 43.101562 65.660156 C 43.101562 65.558594 43.015625 65.472656 42.914062 65.472656 Z M 42.914062 65.988281 C 42.734375 65.988281 42.585938 65.84375 42.585938 65.660156 C 42.585938 65.480469 42.734375 65.335938 42.914062 65.335938 C 43.09375 65.335938 43.238281 65.480469 43.238281 65.660156 C 43.238281 65.84375 43.09375 65.988281 42.914062 65.988281 " fill-opacity="1" fill-rule="nonzero"/></g></g><g clip-path="url(#ea21a7d38d)"><g clip-path="url(#ae31a20c73)"><path fill="#fae6c9" d="M 40.769531 65.015625 L 40.671875 64.921875 C 40.949219 64.628906 41.144531 64.25 41.222656 63.851562 L 41.355469 63.878906 C 41.273438 64.300781 41.066406 64.707031 40.769531 65.015625 " fill-opacity="1" fill-rule="nonzero"/></g></g><g clip-path="url(#5bc6d54b97)"><g clip-path="url(#4d16a3c307)"><path fill="#fae6c9" d="M 41.898438 65.5 L 41.785156 65.421875 C 42.007812 65.097656 42.132812 64.707031 42.128906 64.3125 L 42.265625 64.3125 C 42.269531 64.734375 42.136719 65.15625 41.898438 65.5 " fill-opacity="1" fill-rule="nonzero"/></g></g><g clip-path="url(#d115e69d0c)"><g clip-path="url(#24b636c3c9)"><path fill="#fae6c9" d="M 42.976562 65.707031 L 42.855469 65.640625 C 43.082031 65.222656 43.144531 64.71875 43.023438 64.257812 L 43.15625 64.222656 C 43.285156 64.714844 43.21875 65.257812 42.976562 65.707031 " fill-opacity="1" fill-rule="nonzero"/></g></g><g clip-path="url(#8722993751)"><g clip-path="url(#5930d3a9f9)"><path fill="#000000" d="M 38.546875 67.269531 C 37.566406 67.269531 36.355469 66.710938 36.3125 66.621094 L 36.433594 66.558594 C 36.425781 66.546875 36.421875 66.539062 36.421875 66.539062 C 36.519531 66.621094 37.859375 67.230469 38.800781 67.117188 C 39.753906 66.996094 41.351562 66.800781 42.207031 66.894531 C 42.992188 66.984375 45.128906 66.164062 45.679688 65.453125 L 45.789062 65.535156 C 45.246094 66.238281 43.222656 67.039062 42.324219 67.039062 C 42.277344 67.039062 42.230469 67.039062 42.191406 67.035156 C 41.355469 66.9375 39.765625 67.136719 38.816406 67.253906 C 38.730469 67.261719 38.640625 67.269531 38.546875 67.269531 " fill-opacity="1" fill-rule="nonzero"/></g></g><path fill="#000000" d="M 39.230469 19.609375 C 34.640625 18.421875 27.863281 19.191406 27.800781 19.199219 L 27.78125 19.066406 C 27.84375 19.054688 34.652344 18.28125 39.265625 19.476562 L 39.230469 19.609375 " fill-opacity="1" fill-rule="nonzero"/><path fill="#000000" d="M 32 32.652344 C 31.402344 28.933594 33.144531 19.621094 33.160156 19.527344 L 33.296875 19.554688 C 33.277344 19.648438 31.542969 28.9375 32.132812 32.628906 L 32 32.652344 " fill-opacity="1" fill-rule="nonzero"/></svg>