<svg xmlns="http://www.w3.org/2000/svg" xmlns:xlink="http://www.w3.org/1999/xlink" width="100" zoomAndPan="magnify" viewBox="0 0 75 74.999997" height="100" preserveAspectRatio="xMidYMid meet" version="1.0"><defs><clipPath id="da46528f01"><path d="M 0 1.78125 L 68 1.78125 L 68 70 L 0 70 Z M 0 1.78125 " clip-rule="nonzero"/></clipPath><clipPath id="414c343eef"><path d="M 42 59 L 73 59 L 73 73.03125 L 42 73.03125 Z M 42 59 " clip-rule="nonzero"/></clipPath></defs><g clip-path="url(#da46528f01)"><path fill="#263671" d="M 33.941406 1.78125 C 15.199219 1.78125 0 16.941406 0 35.632812 C 0 44.097656 3.101562 51.828125 8.265625 57.742188 C 8.398438 57.910156 8.554688 58.082031 8.707031 58.253906 C 9.578125 59.238281 10.511719 60.15625 11.5 61.007812 C 17.378906 66.207031 25.09375 69.382812 33.546875 69.46875 C 33.683594 69.488281 33.804688 69.488281 33.9375 69.488281 L 34.417969 69.488281 C 34.824219 69.488281 35.234375 69.46875 35.625 69.4375 C 37.464844 69.351562 39.238281 69.128906 40.972656 68.757812 C 41.878906 68.570312 42.761719 68.347656 43.613281 68.074219 C 43.90625 67.992188 44.191406 67.890625 44.484375 67.785156 C 44.957031 67.652344 45.421875 67.496094 45.878906 67.328125 C 46.984375 66.917969 48.0625 66.441406 49.117188 65.882812 C 51.554688 64.695312 53.835938 63.179688 55.898438 61.429688 C 55.917969 61.414062 55.917969 61.414062 55.917969 61.414062 L 56.71875 60.714844 C 57.246094 60.242188 57.738281 59.765625 58.234375 59.253906 C 60.039062 57.417969 61.625 55.363281 62.972656 53.152344 C 62.988281 53.136719 62.988281 53.136719 62.972656 53.136719 C 63.414062 52.425781 63.824219 51.726562 64.179688 50.980469 C 64.605469 50.183594 64.980469 49.367188 65.320312 48.515625 C 65.78125 47.429688 66.175781 46.324219 66.5 45.167969 C 66.652344 44.722656 66.769531 44.265625 66.875 43.804688 C 67.539062 41.191406 67.878906 38.453125 67.878906 35.632812 C 67.882812 16.941406 52.683594 1.78125 33.941406 1.78125 Z M 33.378906 16.089844 C 41.183594 16.089844 41.847656 20.828125 41.898438 21.355469 C 41.898438 21.457031 41.917969 21.574219 41.949219 21.679688 C 42.597656 24.128906 42.460938 26.828125 42.460938 26.84375 C 42.410156 27.695312 42.9375 28.441406 43.773438 28.59375 C 43.824219 28.613281 43.925781 28.664062 43.996094 28.816406 C 44.046875 28.96875 44.28125 29.820312 43.125 32.011719 C 43.125 32.027344 43.109375 32.027344 43.089844 32.027344 C 42.578125 32.367188 42.035156 32.707031 41.828125 33.40625 C 41.335938 35.207031 37.910156 41.867188 33.378906 41.867188 C 28.828125 41.867188 25.417969 35.207031 24.910156 33.386719 C 24.707031 32.691406 24.195312 32.367188 23.648438 32.027344 C 23.632812 32.027344 23.632812 32.027344 23.613281 32.011719 C 22.453125 29.820312 22.695312 28.96875 22.761719 28.816406 C 22.8125 28.683594 22.898438 28.613281 22.898438 28.613281 C 23.734375 28.460938 24.328125 27.695312 24.277344 26.847656 C 24.277344 26.832031 24.144531 24.148438 24.789062 21.683594 C 24.824219 21.582031 24.839844 21.480469 24.839844 21.375 C 24.859375 21.152344 25.335938 16.089844 33.378906 16.089844 Z M 33.378906 16.089844 " fill-opacity="1" fill-rule="nonzero"/></g><path fill="#0071bc" d="M 56.722656 60.714844 C 56.722656 60.78125 56.738281 60.867188 56.738281 60.953125 C 56.5 61.070312 56.226562 61.226562 55.921875 61.414062 C 55.921875 61.414062 55.921875 61.414062 55.902344 61.429688 C 53.839844 63.179688 51.558594 64.691406 49.121094 65.882812 C 48.066406 66.441406 46.992188 66.917969 45.882812 67.328125 C 45.421875 67.496094 44.964844 67.652344 44.488281 67.785156 C 44.199219 67.886719 43.90625 67.988281 43.617188 68.074219 C 40.996094 68.925781 38.011719 69.488281 34.65625 69.488281 L 33.941406 69.488281 C 33.804688 69.488281 33.683594 69.488281 33.550781 69.46875 C 25.097656 69.386719 17.382812 66.207031 11.503906 61.007812 C 10.515625 60.15625 9.578125 59.238281 8.710938 58.253906 C 8.554688 58.082031 8.402344 57.910156 8.265625 57.742188 C 9.546875 48.683594 15.21875 46.933594 20.246094 45.355469 L 20.585938 45.253906 C 24.128906 44.117188 26.328125 42.464844 27.113281 41.804688 L 27.914062 41.125 L 28.101562 40.957031 L 29.195312 41.6875 C 30.625 42.691406 32.109375 43.183594 33.589844 43.183594 C 35.054688 43.183594 36.535156 42.691406 37.96875 41.6875 L 38.90625 41.058594 C 38.925781 41.058594 38.941406 41.042969 38.941406 41.027344 L 39.046875 40.957031 L 40.050781 41.792969 C 40.835938 42.46875 43.050781 44.136719 46.578125 45.257812 C 51.347656 46.738281 56.902344 49.710938 58.25 59.257812 C 57.746094 59.765625 57.25 60.238281 56.722656 60.714844 Z M 56.722656 60.714844 " fill-opacity="1" fill-rule="nonzero"/><path fill="#0071bc" d="M 56.738281 60.953125 C 56.5 61.070312 56.226562 61.226562 55.921875 61.414062 C 55.921875 61.414062 55.921875 61.414062 55.902344 61.429688 C 53.722656 62.789062 49.9375 65.847656 44.488281 67.785156 C 44.199219 67.886719 43.90625 67.988281 43.617188 68.074219 C 40.996094 68.925781 38.011719 69.484375 34.65625 69.484375 L 34.332031 69.484375 C 34.058594 69.484375 33.804688 69.46875 33.550781 69.46875 C 22.117188 68.992188 12.847656 61.3125 9.800781 59.222656 C 10.636719 49.941406 15.761719 48.53125 21.09375 46.867188 C 24.875 45.660156 27.296875 43.875 28.21875 43.097656 C 29.785156 44.183594 31.589844 44.878906 33.585938 44.878906 C 35.5625 44.878906 37.351562 44.183594 38.933594 43.097656 C 39.820312 43.84375 42.257812 45.660156 46.058594 46.867188 C 51.339844 48.515625 55.820312 51.628906 56.722656 60.714844 C 56.722656 60.78125 56.738281 60.867188 56.738281 60.953125 Z M 56.738281 60.953125 " fill-opacity="1" fill-rule="nonzero"/><path fill="#ffa600" d="M 33.378906 43.566406 C 27.363281 43.566406 23.695312 35.355469 23.269531 33.847656 C 23.261719 33.824219 23.21875 33.78125 23.144531 33.730469 L 22.945312 33.730469 L 22.230469 33.03125 L 22.109375 32.804688 C 21.035156 30.773438 20.730469 29.195312 21.210938 28.125 C 21.351562 27.730469 21.664062 27.425781 21.832031 27.289062 L 22.167969 27.023438 L 22.59375 26.945312 C 22.558594 26.40625 22.484375 23.761719 23.144531 21.253906 C 23.148438 21.246094 23.148438 21.242188 23.148438 21.242188 C 23.148438 21.242188 23.140625 21.308594 23.140625 21.375 C 23.167969 20.96875 23.773438 14.390625 33.378906 14.390625 C 42.660156 14.390625 43.527344 20.496094 43.59375 21.191406 C 43.597656 21.234375 43.601562 21.25 43.597656 21.25 C 43.59375 21.25 43.585938 21.195312 43.5625 21.132812 C 44.257812 23.742188 44.1875 26.402344 44.164062 26.910156 L 44.289062 26.929688 L 44.320312 26.984375 C 44.871094 27.171875 45.308594 27.578125 45.554688 28.128906 L 45.617188 28.289062 C 45.949219 29.304688 45.683594 30.695312 44.832031 32.417969 L 44.832031 33.710938 L 43.632812 33.722656 C 43.542969 33.789062 43.476562 33.847656 43.464844 33.882812 C 42.886719 35.996094 39.027344 43.566406 33.378906 43.566406 Z M 33.378906 43.566406 " fill-opacity="1" fill-rule="nonzero"/><path fill="#ffa600" d="M 43.125 32.011719 C 43.125 32.03125 43.109375 32.03125 43.089844 32.03125 C 42.578125 32.371094 42.035156 32.710938 41.828125 33.40625 C 41.335938 35.210938 37.910156 41.871094 33.378906 41.871094 C 28.828125 41.871094 25.417969 35.210938 24.910156 33.390625 C 24.707031 32.691406 24.195312 32.371094 23.648438 32.03125 C 23.632812 32.03125 23.632812 32.03125 23.613281 32.011719 C 22.453125 29.820312 22.695312 28.972656 22.761719 28.820312 C 22.8125 28.683594 22.898438 28.617188 22.898438 28.617188 C 23.734375 28.460938 24.328125 27.699219 24.277344 26.851562 C 24.277344 26.832031 24.144531 24.148438 24.789062 21.683594 C 24.824219 21.582031 24.839844 21.480469 24.839844 21.378906 C 24.855469 21.15625 25.335938 16.09375 33.378906 16.09375 C 41.183594 16.09375 41.84375 20.835938 41.898438 21.359375 C 41.898438 21.460938 41.914062 21.582031 41.949219 21.683594 C 42.59375 24.132812 42.457031 26.832031 42.457031 26.851562 C 42.40625 27.699219 42.9375 28.449219 43.769531 28.601562 C 43.820312 28.617188 43.925781 28.667969 43.992188 28.820312 C 44.046875 28.972656 44.28125 29.820312 43.125 32.011719 Z M 43.125 32.011719 " fill-opacity="1" fill-rule="nonzero"/><path fill="#0071bc" d="M 57.796875 71.316406 C 50.125 71.316406 43.882812 65.09375 43.882812 57.441406 C 43.882812 49.792969 50.125 43.566406 57.796875 43.566406 C 65.46875 43.566406 71.707031 49.792969 71.707031 57.441406 C 71.707031 65.09375 65.46875 71.316406 57.796875 71.316406 Z M 57.796875 71.316406 " fill-opacity="1" fill-rule="nonzero"/><path fill="#0071bc" d="M 70 57.441406 C 70 64.167969 64.535156 69.621094 57.796875 69.621094 C 51.050781 69.621094 45.585938 64.167969 45.585938 57.441406 C 45.585938 50.71875 51.050781 45.265625 57.796875 45.265625 C 64.539062 45.269531 70 50.71875 70 57.441406 Z M 70 57.441406 " fill-opacity="1" fill-rule="nonzero"/><g clip-path="url(#414c343eef)"><path fill="#46ddff" d="M 57.796875 73.019531 C 50.808594 73.019531 44.707031 68.304688 42.960938 61.546875 C 42.726562 60.640625 43.273438 59.710938 44.183594 59.476562 C 45.09375 59.25 46.023438 59.789062 46.257812 60.695312 C 47.617188 65.949219 52.363281 69.621094 57.792969 69.621094 C 63.226562 69.621094 67.96875 65.953125 69.324219 60.695312 C 69.5625 59.789062 70.492188 59.246094 71.402344 59.476562 C 72.3125 59.710938 72.859375 60.636719 72.628906 61.546875 C 70.882812 68.300781 64.78125 73.019531 57.796875 73.019531 Z M 57.796875 73.019531 " fill-opacity="1" fill-rule="nonzero"/></g><path fill="#46ddff" d="M 70.976562 56.023438 C 70.21875 56.023438 69.53125 55.515625 69.328125 54.75 C 67.972656 49.496094 63.226562 45.828125 57.796875 45.828125 C 52.363281 45.828125 47.617188 49.492188 46.261719 54.75 C 46.023438 55.65625 45.097656 56.203125 44.1875 55.96875 C 43.273438 55.734375 42.726562 54.808594 42.960938 53.898438 C 44.710938 47.144531 50.8125 42.425781 57.796875 42.425781 C 64.785156 42.425781 70.886719 47.144531 72.632812 53.898438 C 72.867188 54.808594 72.316406 55.734375 71.40625 55.96875 C 71.261719 56.007812 71.117188 56.023438 70.976562 56.023438 Z M 70.976562 56.023438 " fill-opacity="1" fill-rule="nonzero"/><path fill="#46ddff" d="M 71.425781 56.023438 C 71.289062 56.023438 71.148438 56.007812 71.011719 55.972656 L 64.199219 54.273438 C 63.285156 54.046875 62.726562 53.125 62.957031 52.214844 C 63.183594 51.304688 64.105469 50.742188 65.019531 50.976562 L 70.183594 52.265625 L 71.472656 47.117188 C 71.699219 46.207031 72.628906 45.644531 73.539062 45.878906 C 74.453125 46.105469 75.007812 47.03125 74.777344 47.941406 L 73.074219 54.738281 C 72.882812 55.511719 72.191406 56.023438 71.425781 56.023438 Z M 71.425781 56.023438 " fill-opacity="1" fill-rule="nonzero"/><path fill="#46ddff" d="M 42.460938 69.621094 C 42.324219 69.621094 42.183594 69.601562 42.046875 69.570312 C 41.132812 69.34375 40.578125 68.417969 40.804688 67.507812 L 42.507812 60.710938 C 42.734375 59.800781 43.65625 59.246094 44.574219 59.476562 L 51.386719 61.171875 C 52.300781 61.398438 52.859375 62.324219 52.628906 63.234375 C 52.398438 64.140625 51.472656 64.695312 50.5625 64.472656 L 45.402344 63.183594 L 44.109375 68.332031 C 43.917969 69.105469 43.226562 69.621094 42.460938 69.621094 Z M 42.460938 69.621094 " fill-opacity="1" fill-rule="nonzero"/></svg>