<svg xmlns="http://www.w3.org/2000/svg" xmlns:xlink="http://www.w3.org/1999/xlink" width="200" zoomAndPan="magnify" viewBox="0 0 150 149.999998" height="200" preserveAspectRatio="xMidYMid meet" version="1.0"><defs><clipPath id="81b5ce28ff"><path d="M 63.898438 22.800781 L 86.101562 22.800781 L 86.101562 67.804688 L 63.898438 67.804688 Z M 63.898438 22.800781 " clip-rule="nonzero"/></clipPath><clipPath id="ffc0a1d3ea"><path d="M 69.898438 22.800781 L 80.101562 22.800781 C 81.691406 22.800781 83.21875 23.429688 84.34375 24.554688 C 85.46875 25.683594 86.101562 27.207031 86.101562 28.800781 L 86.101562 61.800781 C 86.101562 63.390625 85.46875 64.917969 84.34375 66.042969 C 83.21875 67.167969 81.691406 67.800781 80.101562 67.800781 L 69.898438 67.800781 C 68.308594 67.800781 66.78125 67.167969 65.65625 66.042969 C 64.53125 64.917969 63.898438 63.390625 63.898438 61.800781 L 63.898438 28.800781 C 63.898438 27.207031 64.53125 25.683594 65.65625 24.554688 C 66.78125 23.429688 68.308594 22.800781 69.898438 22.800781 Z M 69.898438 22.800781 " clip-rule="nonzero"/></clipPath></defs><path fill="#bef264" d="M 115.414062 75.316406 C 122.765625 75.316406 124.535156 79.507812 119.300781 84.738281 L 80.070312 123.972656 C 77.453125 126.589844 73.171875 126.550781 70.59375 123.972656 L 31.363281 84.738281 C 26.15625 79.535156 27.910156 75.316406 35.246094 75.316406 Z M 115.414062 75.316406 " fill-opacity="1" fill-rule="evenodd"/><g clip-path="url(#81b5ce28ff)"><g clip-path="url(#ffc0a1d3ea)"><path fill="#bef264" d="M 63.898438 22.800781 L 86.101562 22.800781 L 86.101562 67.804688 L 63.898438 67.804688 Z M 63.898438 22.800781 " fill-opacity="1" fill-rule="nonzero"/></g></g></svg>