<svg xmlns="http://www.w3.org/2000/svg" xmlns:xlink="http://www.w3.org/1999/xlink" width="200" zoomAndPan="magnify" viewBox="0 0 150 149.999998" height="200" preserveAspectRatio="xMidYMid meet" version="1.0"><defs><clipPath id="5edea1a6a6"><path d="M 6.199219 6.199219 L 142.699219 6.199219 L 142.699219 142.699219 L 6.199219 142.699219 Z M 6.199219 6.199219 " clip-rule="nonzero"/></clipPath></defs><g clip-path="url(#5edea1a6a6)"><path fill="#737373" d="M 70.367188 142.335938 C 67.738281 142.183594 65.089844 141.882812 62.503906 141.429688 L 62.957031 138.835938 C 65.445312 139.269531 67.988281 139.5625 70.519531 139.703125 L 70.367188 142.332031 Z M 78.28125 142.328125 L 78.128906 139.703125 C 80.660156 139.554688 83.203125 139.257812 85.6875 138.820312 L 86.144531 141.414062 C 83.5625 141.867188 80.914062 142.175781 78.28125 142.328125 Z M 54.796875 139.613281 C 52.277344 138.863281 49.773438 137.953125 47.355469 136.910156 L 48.394531 134.492188 C 50.722656 135.496094 53.128906 136.371094 55.550781 137.089844 Z M 93.847656 139.59375 L 93.089844 137.070312 C 95.515625 136.347656 97.917969 135.46875 100.242188 134.464844 L 101.285156 136.882812 C 98.871094 137.925781 96.367188 138.835938 93.847656 139.59375 Z M 40.273438 133.355469 C 37.996094 132.042969 35.773438 130.574219 33.660156 129.003906 L 35.230469 126.890625 C 37.261719 128.402344 39.402344 129.8125 41.59375 131.074219 Z M 108.355469 133.324219 L 107.035156 131.046875 C 109.222656 129.777344 111.359375 128.371094 113.386719 126.859375 L 114.960938 128.96875 C 112.851562 130.546875 110.628906 132.007812 108.355469 133.324219 Z M 27.597656 123.914062 C 25.679688 122.109375 23.851562 120.175781 22.15625 118.160156 L 24.171875 116.464844 C 25.800781 118.402344 27.558594 120.261719 29.398438 121.996094 L 27.59375 123.914062 Z M 121.019531 123.875 L 119.214844 121.960938 C 121.050781 120.226562 122.8125 118.359375 124.4375 116.425781 L 126.457031 118.117188 C 124.761719 120.132812 122.933594 122.070312 121.023438 123.875 Z M 17.421875 111.820312 C 15.972656 109.625 14.636719 107.320312 13.453125 104.972656 L 15.804688 103.789062 C 16.945312 106.042969 18.226562 108.257812 19.621094 110.367188 Z M 131.183594 111.769531 L 128.988281 110.320312 C 130.378906 108.207031 131.660156 105.988281 132.796875 103.734375 L 135.148438 104.914062 C 133.964844 107.265625 132.632812 109.570312 131.183594 111.769531 Z M 10.3125 97.707031 C 9.40625 95.234375 8.644531 92.683594 8.035156 90.125 L 10.597656 89.515625 C 11.183594 91.976562 11.917969 94.425781 12.785156 96.804688 Z M 138.292969 97.644531 L 135.816406 96.742188 C 136.683594 94.367188 137.414062 91.910156 137.996094 89.449219 L 140.558594 90.054688 C 139.953125 92.617188 139.191406 95.171875 138.292969 97.644531 Z M 6.660156 82.328125 C 6.359375 79.726562 6.203125 77.066406 6.199219 74.429688 L 8.832031 74.429688 C 8.832031 76.964844 8.984375 79.519531 9.277344 82.023438 L 6.664062 82.328125 Z M 141.925781 82.257812 L 139.3125 81.957031 C 139.601562 79.449219 139.75 76.894531 139.75 74.359375 L 139.75 74.21875 C 139.75 74.21875 142.382812 74.210938 142.382812 74.210938 L 142.382812 74.355469 C 142.382812 76.996094 142.230469 79.652344 141.929688 82.253906 Z M 9.261719 66.828125 L 6.644531 66.527344 C 6.945312 63.910156 7.402344 61.285156 8 58.726562 L 10.566406 59.328125 C 9.988281 61.785156 9.550781 64.308594 9.261719 66.828125 Z M 139.296875 66.617188 C 139 64.105469 138.554688 61.582031 137.96875 59.128906 L 140.53125 58.515625 C 141.140625 61.074219 141.605469 63.695312 141.914062 66.3125 Z M 12.738281 52.03125 L 10.261719 51.136719 C 11.160156 48.664062 12.214844 46.214844 13.394531 43.859375 L 15.75 45.039062 C 14.613281 47.304688 13.601562 49.65625 12.738281 52.03125 Z M 135.773438 51.839844 C 134.902344 49.46875 133.882812 47.121094 132.742188 44.859375 L 135.089844 43.671875 C 136.277344 46.019531 137.339844 48.464844 138.246094 50.933594 Z M 19.554688 38.449219 L 17.351562 37 C 18.796875 34.804688 20.386719 32.667969 22.078125 30.648438 L 24.097656 32.339844 C 22.46875 34.28125 20.941406 36.335938 19.554688 38.449219 Z M 128.921875 38.285156 C 127.523438 36.175781 125.992188 34.125 124.359375 32.195312 L 126.375 30.496094 C 128.070312 32.507812 129.664062 34.640625 131.117188 36.832031 Z M 29.3125 26.796875 L 27.503906 24.886719 C 29.414062 23.078125 31.453125 21.363281 33.558594 19.789062 L 35.136719 21.898438 C 33.109375 23.410156 31.152344 25.058594 29.3125 26.800781 Z M 119.125 26.667969 C 117.28125 24.933594 115.316406 23.289062 113.285156 21.78125 L 114.855469 19.667969 C 116.96875 21.234375 119.007812 22.945312 120.925781 24.75 L 119.121094 26.667969 Z M 41.480469 17.703125 L 40.160156 15.425781 C 42.433594 14.101562 44.8125 12.90625 47.222656 11.859375 L 48.269531 14.273438 C 45.953125 15.28125 43.667969 16.433594 41.480469 17.703125 Z M 106.925781 17.601562 C 104.730469 16.339844 102.441406 15.191406 100.117188 14.191406 L 101.15625 11.773438 C 103.574219 12.808594 105.957031 14.003906 108.238281 15.320312 Z M 55.417969 11.660156 L 54.660156 9.140625 C 57.175781 8.382812 59.765625 7.765625 62.359375 7.308594 L 62.820312 9.902344 C 60.328125 10.34375 57.835938 10.933594 55.417969 11.660156 Z M 92.960938 11.601562 C 90.539062 10.882812 88.046875 10.296875 85.550781 9.867188 L 86.003906 7.273438 C 88.597656 7.722656 91.191406 8.332031 93.710938 9.078125 L 92.960938 11.605469 Z M 70.378906 9.015625 L 70.222656 6.386719 C 71.566406 6.308594 72.929688 6.269531 74.277344 6.269531 L 74.289062 6.269531 C 75.570312 6.269531 76.863281 6.304688 78.136719 6.375 L 77.988281 9.003906 C 76.765625 8.9375 75.519531 8.902344 74.289062 8.902344 L 74.273438 8.902344 C 72.976562 8.902344 71.667969 8.941406 70.375 9.019531 Z M 70.378906 9.015625 " fill-opacity="1" fill-rule="nonzero"/></g></svg>