<svg xmlns="http://www.w3.org/2000/svg" xmlns:xlink="http://www.w3.org/1999/xlink" width="200" zoomAndPan="magnify" viewBox="0 0 150 149.999998" height="200" preserveAspectRatio="xMidYMid meet" version="1.0"><defs><clipPath id="dcdf3a6bea"><path d="M 20.164062 67.5 L 35.164062 67.5 L 35.164062 82.5 L 20.164062 82.5 Z M 20.164062 67.5 " clip-rule="nonzero"/></clipPath><clipPath id="a6db836531"><path d="M 27.664062 67.5 C 23.519531 67.5 20.164062 70.859375 20.164062 75 C 20.164062 79.140625 23.519531 82.5 27.664062 82.5 C 31.804688 82.5 35.164062 79.140625 35.164062 75 C 35.164062 70.859375 31.804688 67.5 27.664062 67.5 Z M 27.664062 67.5 " clip-rule="nonzero"/></clipPath><clipPath id="e0a9c2ad08"><path d="M 40.488281 65.800781 L 58.886719 65.800781 L 58.886719 84.199219 L 40.488281 84.199219 Z M 40.488281 65.800781 " clip-rule="nonzero"/></clipPath><clipPath id="c8f06264f5"><path d="M 49.6875 65.800781 C 44.605469 65.800781 40.488281 69.917969 40.488281 75 C 40.488281 80.082031 44.605469 84.199219 49.6875 84.199219 C 54.769531 84.199219 58.886719 80.082031 58.886719 75 C 58.886719 69.917969 54.769531 65.800781 49.6875 65.800781 Z M 49.6875 65.800781 " clip-rule="nonzero"/></clipPath><clipPath id="84b891d381"><path d="M 64.136719 64.101562 L 85.9375 64.101562 L 85.9375 85.898438 L 64.136719 85.898438 Z M 64.136719 64.101562 " clip-rule="nonzero"/></clipPath><clipPath id="deb517c2dc"><path d="M 75.039062 64.101562 C 69.019531 64.101562 64.136719 68.980469 64.136719 75 C 64.136719 81.019531 69.019531 85.898438 75.039062 85.898438 C 81.058594 85.898438 85.9375 81.019531 85.9375 75 C 85.9375 68.980469 81.058594 64.101562 75.039062 64.101562 Z M 75.039062 64.101562 " clip-rule="nonzero"/></clipPath><clipPath id="6a218b939d"><path d="M 91.1875 65.800781 L 109.585938 65.800781 L 109.585938 84.199219 L 91.1875 84.199219 Z M 91.1875 65.800781 " clip-rule="nonzero"/></clipPath><clipPath id="987d013c97"><path d="M 100.386719 65.800781 C 95.304688 65.800781 91.1875 69.917969 91.1875 75 C 91.1875 80.082031 95.304688 84.199219 100.386719 84.199219 C 105.46875 84.199219 109.585938 80.082031 109.585938 75 C 109.585938 69.917969 105.46875 65.800781 100.386719 65.800781 Z M 100.386719 65.800781 " clip-rule="nonzero"/></clipPath><clipPath id="047fa2d329"><path d="M 114.835938 68.699219 L 129.835938 68.699219 L 129.835938 83.699219 L 114.835938 83.699219 Z M 114.835938 68.699219 " clip-rule="nonzero"/></clipPath><clipPath id="8594b5f740"><path d="M 122.335938 68.699219 C 118.195312 68.699219 114.835938 72.058594 114.835938 76.199219 C 114.835938 80.34375 118.195312 83.699219 122.335938 83.699219 C 126.480469 83.699219 129.835938 80.34375 129.835938 76.199219 C 129.835938 72.058594 126.480469 68.699219 122.335938 68.699219 Z M 122.335938 68.699219 " clip-rule="nonzero"/></clipPath><clipPath id="dd9e5a38b1"><path d="M 3.511719 69.300781 L 14.914062 69.300781 L 14.914062 80.699219 L 3.511719 80.699219 Z M 3.511719 69.300781 " clip-rule="nonzero"/></clipPath><clipPath id="ae6274f982"><path d="M 9.210938 69.300781 C 6.066406 69.300781 3.511719 71.851562 3.511719 75 C 3.511719 78.148438 6.066406 80.699219 9.210938 80.699219 C 12.359375 80.699219 14.914062 78.148438 14.914062 75 C 14.914062 71.851562 12.359375 69.300781 9.210938 69.300781 Z M 9.210938 69.300781 " clip-rule="nonzero"/></clipPath><clipPath id="06948c73cc"><path d="M 135.085938 70.5 L 146.488281 70.5 L 146.488281 81.898438 L 135.085938 81.898438 Z M 135.085938 70.5 " clip-rule="nonzero"/></clipPath><clipPath id="86160d4308"><path d="M 140.789062 70.5 C 137.640625 70.5 135.085938 73.050781 135.085938 76.199219 C 135.085938 79.347656 137.640625 81.898438 140.789062 81.898438 C 143.933594 81.898438 146.488281 79.347656 146.488281 76.199219 C 146.488281 73.050781 143.933594 70.5 140.789062 70.5 Z M 140.789062 70.5 " clip-rule="nonzero"/></clipPath></defs><g clip-path="url(#dcdf3a6bea)"><g clip-path="url(#a6db836531)"><path fill="#bef264" d="M 20.164062 67.5 L 35.164062 67.5 L 35.164062 82.5 L 20.164062 82.5 Z M 20.164062 67.5 " fill-opacity="1" fill-rule="nonzero"/></g></g><g clip-path="url(#e0a9c2ad08)"><g clip-path="url(#c8f06264f5)"><path fill="#bef264" d="M 40.488281 65.800781 L 58.886719 65.800781 L 58.886719 84.199219 L 40.488281 84.199219 Z M 40.488281 65.800781 " fill-opacity="1" fill-rule="nonzero"/></g></g><g clip-path="url(#84b891d381)"><g clip-path="url(#deb517c2dc)"><path fill="#bef264" d="M 64.136719 64.101562 L 85.9375 64.101562 L 85.9375 85.898438 L 64.136719 85.898438 Z M 64.136719 64.101562 " fill-opacity="1" fill-rule="nonzero"/></g></g><g clip-path="url(#6a218b939d)"><g clip-path="url(#987d013c97)"><path fill="#bef264" d="M 91.1875 65.800781 L 109.585938 65.800781 L 109.585938 84.199219 L 91.1875 84.199219 Z M 91.1875 65.800781 " fill-opacity="1" fill-rule="nonzero"/></g></g><g clip-path="url(#047fa2d329)"><g clip-path="url(#8594b5f740)"><path fill="#bef264" d="M 114.835938 68.699219 L 129.835938 68.699219 L 129.835938 83.699219 L 114.835938 83.699219 Z M 114.835938 68.699219 " fill-opacity="1" fill-rule="nonzero"/></g></g><g clip-path="url(#dd9e5a38b1)"><g clip-path="url(#ae6274f982)"><path fill="#bef264" d="M 3.511719 69.300781 L 14.914062 69.300781 L 14.914062 80.699219 L 3.511719 80.699219 Z M 3.511719 69.300781 " fill-opacity="1" fill-rule="nonzero"/></g></g><g clip-path="url(#06948c73cc)"><g clip-path="url(#86160d4308)"><path fill="#bef264" d="M 135.085938 70.5 L 146.488281 70.5 L 146.488281 81.898438 L 135.085938 81.898438 Z M 135.085938 70.5 " fill-opacity="1" fill-rule="nonzero"/></g></g></svg>